<svg xmlns="http://www.w3.org/2000/svg" width="32.7" height="31.813" viewBox="0 0 32.7 31.813">
  <path id="github" d="M18,1.4a16.33,16.33,0,0,0-5.2,31.8c.8.1,1.1-.4,1.1-.8V29.6c-4.5,1-5.5-2.2-5.5-2.2A4.129,4.129,0,0,0,6.6,25c-1.5-1,.1-1,.1-1a3.484,3.484,0,0,1,2.5,1.7,3.462,3.462,0,0,0,4.7,1.4,3.482,3.482,0,0,1,1-2.2c-3.6-.4-7.4-1.8-7.4-8.1a6.2,6.2,0,0,1,1.7-4.4,5.686,5.686,0,0,1,.2-4.3s1.4-.4,4.5,1.7A13.974,13.974,0,0,1,18,9.3a18.406,18.406,0,0,1,4.1.5c3.1-2.1,4.5-1.7,4.5-1.7a6.261,6.261,0,0,1,.2,4.3,6.468,6.468,0,0,1,1.7,4.4c0,6.3-3.8,7.6-7.4,8a3.819,3.819,0,0,1,1.1,3v4.5c0,.4.3.9,1.1.8A16.318,16.318,0,0,0,34.4,17.6,16.433,16.433,0,0,0,18,1.4Z" transform="translate(-1.7 -1.4)" fill="#191717" fill-rule="evenodd"/>
</svg>
