<svg xmlns="http://www.w3.org/2000/svg" width="70.542" height="42" viewBox="0 0 70.542 42">
  <g id="グループ_21" data-name="グループ 21" transform="translate(-39 -25)">
    <circle id="楕円形_6" data-name="楕円形 6" cx="21" cy="21" r="21" transform="translate(39 25)" fill="#333"/>
    <circle id="楕円形_7" data-name="楕円形 7" cx="16.5" cy="16.5" r="16.5" transform="translate(53 34)" fill="#fff"/>
    <path id="パス_5" data-name="パス 5" d="M4.438.2C6.958.2,8.414-1.33,8.414-3.066A2.879,2.879,0,0,0,6.356-5.922l-1.3-.518C4.13-6.8,3.486-7.028,3.486-7.616c0-.546.462-.854,1.232-.854a3.388,3.388,0,0,1,2.142.8L8.106-9.24a4.847,4.847,0,0,0-3.388-1.372c-2.212,0-3.78,1.4-3.78,3.15A3.051,3.051,0,0,0,3.052-4.606l1.33.56c.9.378,1.47.574,1.47,1.176,0,.56-.434.91-1.358.91a4.142,4.142,0,0,1-2.52-1.064L.546-1.3A5.829,5.829,0,0,0,4.438.2ZM11.83.2a1.493,1.493,0,0,0,1.484-1.554A1.481,1.481,0,0,0,11.83-2.9a1.472,1.472,0,0,0-1.484,1.54A1.484,1.484,0,0,0,11.83.2ZM15.9,0H18.41V-2.73l1.134-1.54L22.008,0h2.73L21-6.244l3.15-4.186H21.406L18.452-6.3H18.41v-4.13H15.9ZM30.072.2c2.842,0,4.774-2.044,4.774-5.46s-1.932-5.348-4.774-5.348S25.3-8.68,25.3-5.264,27.23.2,30.072.2Zm0-2.156c-1.372,0-2.212-1.288-2.212-3.3S28.7-8.47,30.072-8.47,32.3-7.28,32.3-5.264,31.444-1.96,30.072-1.96ZM41.37.2c2.772,0,4.172-1.582,4.172-5.1v-5.53H43.134v5.8c0,1.974-.63,2.674-1.764,2.674s-1.736-.7-1.736-2.674v-5.8H37.142V-4.9C37.142-1.386,38.584.2,41.37.2Z" transform="translate(64 57)" fill="#333"/>
  </g>
</svg>
